<?xml version="1.0" standalone="no"?>
<!DOCTYPE svg PUBLIC "-//W3C//DTD SVG 20010904//EN"
 "http://www.w3.org/TR/2001/REC-SVG-20010904/DTD/svg10.dtd">
<svg version="1.0" xmlns="http://www.w3.org/2000/svg"
 width="260.000000pt" height="260.000000pt" viewBox="0 0 260.000000 260.000000"
 preserveAspectRatio="xMidYMid meet">
<metadata>
Created by potrace 1.14, written by Peter Selinger 2001-2017
</metadata>
<g transform="translate(0.000000,260.000000) scale(0.100000,-0.100000)"
fill="#000000" stroke="none">
<path d="M1150 2591 c-14 -5 -35 -6 -48 -5 -12 2 -22 0 -22 -4 0 -4 -12 -7
-27 -6 -16 1 -57 -9 -93 -22 -36 -13 -76 -25 -90 -28 -34 -6 -60 -17 -60 -25
0 -4 -8 -7 -17 -8 -32 -3 -73 -22 -79 -37 -3 -8 -11 -13 -18 -10 -6 2 -34 -11
-61 -31 -28 -19 -55 -35 -62 -35 -6 0 -19 -10 -27 -22 -9 -12 -16 -18 -16 -13
-1 6 -10 -1 -20 -14 -11 -13 -20 -19 -20 -15 0 5 -5 1 -11 -8 -5 -10 -14 -18
-18 -18 -9 0 -121 -107 -121 -116 0 -2 -18 -23 -40 -45 -22 -22 -40 -43 -40
-46 0 -4 -11 -21 -25 -39 -14 -18 -25 -37 -25 -42 0 -5 -7 -16 -16 -23 -13
-11 -35 -50 -38 -69 -1 -3 -11 -18 -22 -35 -12 -16 -25 -45 -29 -62 -3 -18
-11 -33 -16 -33 -6 0 -7 -4 -4 -10 3 -5 1 -10 -5 -10 -6 0 -9 -4 -6 -9 3 -5
-4 -35 -15 -67 -28 -81 -32 -98 -45 -204 -10 -74 -10 -291 -1 -360 5 -30 10
-71 11 -91 2 -20 9 -45 15 -55 6 -11 17 -41 25 -69 24 -83 50 -148 74 -186 12
-20 22 -40 22 -44 0 -5 11 -23 25 -40 13 -18 26 -39 27 -46 3 -13 21 -36 69
-89 15 -16 25 -31 22 -33 -5 -6 110 -122 119 -119 4 1 10 -7 13 -18 4 -11 11
-20 17 -20 6 0 27 -14 47 -30 57 -48 60 -50 71 -50 5 0 10 -4 10 -10 0 -5 6
-10 14 -10 7 0 19 -6 25 -14 22 -26 281 -146 281 -130 0 4 8 0 17 -7 15 -12
16 -12 8 1 -5 9 1 7 14 -5 13 -11 25 -19 27 -17 2 1 5 2 7 1 9 -3 45 -10 60
-11 9 -1 17 -6 17 -10 0 -5 9 -4 20 2 11 6 20 7 20 3 0 -11 70 -17 210 -16 99
0 235 8 235 13 0 1 11 3 25 4 14 2 33 6 43 9 46 18 53 20 61 18 4 -1 13 3 20
8 6 5 25 11 41 14 17 3 43 12 59 20 16 9 33 14 38 11 4 -3 8 -1 8 3 0 5 16 15
35 22 19 7 35 17 35 22 0 6 4 8 9 5 5 -3 27 8 50 24 22 17 44 30 48 30 5 0 21
11 37 25 16 14 32 25 35 25 3 0 21 14 39 31 17 16 32 28 32 25 0 -3 12 7 27
22 15 15 26 28 25 30 -2 1 12 15 30 30 46 38 58 50 58 57 0 4 12 22 27 40 44
51 58 70 59 75 0 6 36 63 44 70 7 7 27 53 28 64 0 5 7 13 15 17 8 5 20 29 27
54 7 25 16 45 20 45 4 0 7 7 8 15 1 8 3 22 4 30 1 8 5 15 9 15 4 0 6 8 5 17
-2 10 5 36 15 58 10 22 20 52 23 67 2 15 7 32 11 38 3 5 0 10 -7 10 -8 0 -9 3
-3 8 6 4 10 21 10 37 0 17 3 35 6 40 11 17 -1 385 -12 385 -4 0 -6 6 -6 13 3
25 -15 97 -24 97 -5 0 -8 3 -8 8 3 15 -14 92 -20 92 -4 0 -13 21 -20 48 -8 26
-22 59 -33 74 -10 15 -25 42 -34 60 -13 30 -49 85 -72 114 -5 5 -15 21 -22 35
-7 13 -21 30 -32 37 -10 7 -18 18 -18 23 0 14 -152 159 -167 159 -7 0 -13 6
-13 14 0 8 -9 18 -20 21 -11 4 -31 16 -43 28 -13 12 -29 23 -37 25 -8 2 -17 7
-20 10 -8 11 -43 31 -72 43 -16 6 -28 16 -28 22 0 6 -3 7 -7 4 -3 -4 -14 0
-23 8 -9 8 -25 16 -36 18 -10 2 -29 9 -42 16 -13 7 -32 14 -43 17 -43 9 -56
13 -99 29 -45 17 -69 22 -146 29 -23 2 -47 7 -53 10 -6 4 -11 1 -11 -6 0 -9
-3 -10 -8 -2 -10 16 -212 16 -231 1 -12 -9 -13 -9 -7 1 8 13 3 14 -34 3z m320
-484 c14 -3 55 -16 93 -31 37 -14 67 -23 67 -19 0 3 8 -1 18 -9 9 -8 32 -20
50 -28 17 -7 32 -16 32 -21 0 -5 12 -15 28 -22 35 -16 42 -21 115 -93 75 -73
103 -106 99 -118 -1 -4 10 -19 25 -32 15 -13 25 -24 21 -24 -4 0 4 -20 17 -44
14 -25 25 -49 25 -55 0 -5 5 -22 11 -38 6 -15 11 -30 11 -33 0 -3 5 -14 11
-25 14 -26 16 -46 21 -195 3 -87 1 -127 -7 -132 -9 -6 -9 -8 0 -8 8 0 9 -9 3
-30 -5 -16 -6 -30 -4 -30 3 0 2 -6 -3 -12 -4 -7 -8 -16 -9 -20 -1 -5 -3 -10
-4 -13 -1 -3 -3 -8 -5 -12 -1 -5 -7 -21 -13 -36 -7 -16 -12 -32 -12 -37 0 -14
-54 -114 -72 -134 -10 -11 -18 -24 -18 -28 0 -12 -13 -27 -90 -104 -87 -87
-95 -94 -109 -94 -6 0 -23 -12 -36 -26 -13 -14 -27 -26 -32 -26 -22 -2 -63
-21 -63 -30 0 -5 -4 -7 -8 -4 -4 2 -35 -6 -67 -20 -81 -32 -119 -38 -265 -37
-153 1 -184 4 -235 27 -22 9 -48 18 -57 19 -10 1 -18 5 -18 9 0 4 -3 7 -7 6
-12 -4 -73 26 -73 35 0 5 -4 6 -9 3 -4 -3 -21 6 -37 19 -16 14 -32 25 -36 25
-24 0 -198 176 -198 200 0 6 -5 10 -11 10 -5 0 -8 4 -4 9 3 6 -1 13 -8 18 -13
8 -60 99 -72 143 -4 14 -11 30 -16 36 -5 6 -11 21 -13 35 -3 13 -5 24 -6 24
-7 0 -13 82 -13 190 -1 125 7 208 21 230 4 5 7 12 8 15 0 3 6 18 12 33 7 16
12 34 12 40 0 7 9 26 20 42 11 17 20 37 20 45 0 8 12 26 25 39 14 13 25 27 25
32 0 12 26 43 91 108 71 71 96 91 113 91 8 0 17 7 20 15 5 14 89 58 121 65 6
1 15 6 22 12 7 5 17 7 23 3 5 -3 10 -2 10 3 0 9 65 32 110 39 13 3 26 5 27 7
5 4 276 -2 303 -7z"/>
<path d="M1240 1808 c-25 -4 -54 -10 -65 -13 -11 -2 -33 -7 -50 -10 -16 -3
-32 -10 -35 -14 -3 -5 -25 -18 -50 -31 -49 -25 -170 -143 -170 -166 0 -8 -4
-12 -10 -9 -5 3 -10 -3 -10 -14 0 -11 -6 -26 -14 -33 -7 -8 -16 -27 -20 -44
-3 -16 -9 -40 -12 -54 -3 -14 -6 -32 -7 -40 -1 -8 -6 -18 -12 -22 -6 -5 -5 -8
3 -8 8 0 10 -5 5 -12 -11 -18 -10 -72 2 -80 6 -5 5 -8 -3 -8 -9 0 -9 -8 2 -35
9 -20 15 -38 15 -40 -2 -20 14 -85 21 -85 5 0 12 -10 15 -22 4 -13 18 -37 31
-54 13 -17 20 -34 17 -38 -4 -3 -1 -6 5 -6 6 0 30 -20 54 -44 24 -23 59 -51
78 -61 19 -10 41 -22 48 -28 8 -6 24 -13 35 -14 12 -2 24 -8 25 -13 2 -6 7 -8
12 -5 5 3 35 -1 67 -8 32 -8 69 -13 83 -11 14 1 42 3 63 5 20 2 37 7 37 11 0
4 3 7 8 6 21 -6 101 15 106 28 3 8 9 13 13 12 12 -3 77 33 86 49 5 7 12 11 18
8 5 -4 9 -2 9 2 0 5 22 33 49 62 28 30 48 58 46 62 -3 4 2 12 10 19 8 7 15 19
15 26 0 8 4 14 8 14 11 0 43 145 43 200 1 72 -16 163 -40 210 -47 92 -55 106
-68 113 -7 5 -11 12 -8 18 4 5 2 9 -3 9 -5 0 -29 20 -54 44 -25 25 -57 48 -71
51 -15 4 -27 11 -27 15 0 10 -85 43 -108 43 -9 0 -23 4 -29 10 -7 5 -13 7 -13
4 0 -3 -16 -1 -35 3 -21 5 -38 4 -41 -2 -3 -5 -11 -5 -17 0 -7 4 -32 5 -57 0z
m158 -254 c24 -8 48 -19 55 -24 7 -6 21 -18 32 -28 31 -26 63 -75 70 -108 19
-85 21 -114 9 -152 -6 -23 -9 -44 -6 -47 3 -3 -1 -5 -8 -5 -7 0 -10 -3 -7 -6
7 -7 -27 -60 -54 -84 -35 -31 -56 -45 -70 -49 -90 -23 -149 -32 -149 -21 0 3
-8 6 -17 7 -36 2 -78 15 -84 24 -3 6 -9 10 -13 9 -21 -5 -112 100 -99 114 3 3
2 6 -4 6 -5 0 -10 6 -11 13 -3 39 -7 57 -12 57 -9 0 5 110 20 154 6 20 15 36
19 36 4 0 14 11 21 25 14 25 78 72 93 67 4 -1 7 2 7 6 0 8 7 10 50 14 11 1 20
5 20 9 0 10 91 -1 138 -17z"/>
</g>
</svg>
